# xmcd
#
# Track frame offsets:
#	150
#	8440
#	26698
#	43953
#	64886
#	91144
#	113995
#	132674
#	145290
#	170738
#
# Disc length: 2678 seconds
#
# Revision: 9
# Processed by: cddbd v1.5.2PL0 Copyright (c) Steve Scherf et al.
# Submitted via: Jack! The Knife 20 Magnifico
#
DISCID=8d0a740a
DTITLE=Grave Digger - Rheingold
DYEAR=2003
DGENRE=Metal
TTITLE0=The Ring
TTITLE1=Rheingold
TTITLE2=Valhalla
TTITLE3=Giants
TTITLE4=Maidens Of War
TTITLE5=Sword
TTITLE6=Dragon
TTITLE7=Liar
TTITLE8=Murderer
TTITLE9=Twilight Of The Gods
EXTD=Chris Boltendahl and Resetti Brothers
EXTT0=Boltendahl, Becker, Katzenburg, Schmidt
EXTT1=Boltendahl, Becker, Katzenburg, Schmidt
EXTT2=Boltendahl, Becker, Katzenburg, Schmidt
EXTT3=Boltendahl, Becker, Katzenburg, Schmidt
EXTT4=Boltendahl, Becker, Katzenburg, Schmidt
EXTT5=Boltendahl, Becker, Katzenburg, Schmidt
EXTT6=Boltendahl, Becker, Katzenburg, Schmidt
EXTT7=Boltendahl, Becker, Katzenburg, Schmidt
EXTT8=Boltendahl, Becker, Katzenburg, Schmidt
EXTT9=Boltendahl, Becker, Katzenburg, Schmidt
PLAYORDER=
